<svg xmlns="http://www.w3.org/2000/svg" version="1.1" width="627" height="398" style=""><rect id="backgroundrect" width="100%" height="100%" x="0" y="0" fill="none" stroke="none"/><defs><linearGradient id="svg_18"><stop stop-color="#f9f1f1" stop-opacity="1" offset="0"/><stop stop-color="#060e0e" stop-opacity="1" offset="1"/></linearGradient><linearGradient id="svg_19" x1="0" y1="0" x2="1" y2="1"><stop stop-color="#f9f1f1" stop-opacity="1" offset="0"/><stop stop-color="#060e0e" stop-opacity="1" offset="1"/></linearGradient><linearGradient id="svg_20" x1="0" y1="0" x2="1" y2="1"><stop stop-color="#f9f1f1" stop-opacity="1" offset="0.4640624523162842"/><stop stop-color="#060e0e" stop-opacity="1" offset="1"/></linearGradient><linearGradient id="svg_21" x2="1" y2="1"><stop stop-color="#f98484" stop-opacity="1" offset="0"/><stop stop-color="#067b7b" stop-opacity="1" offset="1"/></linearGradient><linearGradient id="svg_22" x2="1" y2="1" x1="1" y1="0"><stop stop-color="#f98484" stop-opacity="1" offset="0"/><stop stop-color="#067b7b" stop-opacity="1" offset="1"/></linearGradient><radialGradient id="svg_23" spreadMethod="pad" cx="0.4796873927116394" cy="0.45390620827674866"><stop stop-color="#f98484" stop-opacity="1" offset="0"/><stop stop-color="#067b7b" stop-opacity="1" offset="1"/></radialGradient><radialGradient id="svg_24" spreadMethod="pad" cx="0.5" cy="0.5" r="1.8938445226344292"><stop stop-color="#f9f1f1" stop-opacity="1" offset="0"/><stop stop-color="#060e0e" stop-opacity="1" offset="1"/></radialGradient><radialGradient id="svg_25" spreadMethod="pad"><stop stop-color="#24243e" stop-opacity="1" offset="0"/><stop stop-color="#dbdbc1" stop-opacity="1" offset="1"/></radialGradient><radialGradient id="svg_26" spreadMethod="pad" cx="0.5" cy="0.5" r="0.5"><stop stop-color="#24243e" stop-opacity="1" offset="0"/><stop stop-color="#dbdbc1" stop-opacity="1" offset="1"/></radialGradient><radialGradient id="svg_27" spreadMethod="pad" cx="0.4992187023162842" cy="0.49687498807907104" r="0.5"><stop stop-color="#24243e" stop-opacity="1" offset="0"/><stop stop-color="#dbdbc1" stop-opacity="1" offset="0"/></radialGradient><linearGradient id="svg_28" spreadMethod="pad" x1="0.4601562023162842" y1="0.41093748807907104"><stop stop-color="#24243e" stop-opacity="1" offset="0"/><stop stop-color="#dbdbc1" stop-opacity="1" offset="1"/></linearGradient><linearGradient id="svg_29" spreadMethod="pad" x1="0" y1="1" x2="0.6828124523162842" y2="0.23906248807907104"><stop stop-color="#24243e" stop-opacity="1" offset="0"/><stop stop-color="#dbdbc1" stop-opacity="1" offset="1"/></linearGradient></defs>

















<g class="currentLayer" style=""><title>Layer 1</title><path fill="#f9f1f1" d="   M 368.36 118.21   A 0.72 0.72 0.0 0 0 369.12 119.33   L 380.42 116.53   A 2.48 2.47 -34.3 0 1 382.41 116.90   L 425.30 146.95   A 0.66 0.65 45.6 0 1 425.29 148.03   Q 420.92 150.97 416.61 154.14   Q 401.04 165.61 392.03 182.55   A 0.99 0.98 26.7 0 1 390.73 182.97   L 385.45 180.43   A 0.85 0.84 6.2 0 0 384.26 181.38   Q 384.79 183.63 386.30 185.35   A 1.17 1.17 0.0 0 0 387.18 185.75   L 416.34 185.67   A 1.24 1.23 -0.7 0 0 417.58 184.41   L 417.48 179.43   Q 417.47 178.84 417.11 178.37   C 414.54 175.10 412.16 173.65 411.89 169.02   A 1.30 1.30 0.0 0 1 413.18 167.64   C 417.40 167.59 422.62 166.50 422.71 172.75   Q 423.09 199.09 422.60 219.00   C 422.49 223.53 415.68 222.88 412.61 222.58   A 0.84 0.83 4.0 0 1 411.86 221.72   C 412.09 217.03 414.07 215.17 417.16 211.89   A 1.30 1.28 67.6 0 0 417.51 211.03   L 417.53 205.04   A 0.99 0.98 0.3 0 0 416.54 204.05   L 387.51 204.03   A 0.98 0.98 0.0 0 0 386.53 205.04   C 386.97 217.97 392.92 227.33 403.12 234.93   A 0.40 0.40 0.0 0 1 403.09 235.59   L 352.37 266.44   A 0.91 0.91 0.0 0 1 350.99 265.75   L 350.55 261.12   A 0.75 0.74 -31.4 0 0 349.18 260.79   L 341.73 272.53   A 3.99 3.96 0.2 0 1 340.46 273.78   L 323.83 284.08   A 1.76 1.75 -45.2 0 1 321.99 284.09   L 242.80 235.68   A 0.57 0.56 43.5 0 1 242.77 234.73   C 251.81 228.47 258.36 218.29 258.91 207.12   Q 258.98 205.66 257.52 205.66   L 229.32 205.65   Q 228.08 205.65 228.09 206.89   L 228.12 212.70   A 1.32 1.32 0.0 0 0 228.48 213.58   C 231.40 216.60 233.31 218.05 233.61 222.65   Q 233.71 224.08 232.29 224.19   Q 230.00 224.37 227.50 224.22   Q 222.92 223.96 222.92 219.25   Q 222.91 207.96 223.19 196.66   C 223.36 189.62 222.88 180.91 223.29 173.01   C 223.54 168.27 229.43 169.49 232.50 169.24   A 1.14 1.14 0.0 0 1 233.73 170.41   C 233.57 175.15 231.49 176.48 228.52 179.80   A 1.51 1.49 -23.8 0 0 228.13 180.78   L 228.08 185.87   A 1.36 1.35 0.6 0 0 229.43 187.24   L 254.32 187.28   A 1.10 1.10 0.0 0 0 255.28 185.65   L 248.69 173.77   A 0.69 0.68 -42.3 0 1 248.73 173.03   Q 251.06 169.85 253.36 166.45   Q 253.66 166.01 253.58 165.85   A 1.20 1.16 -21.8 0 0 252.24 165.30   L 244.93 167.29   A 2.19 2.18 -28.5 0 1 242.72 166.64   Q 232.94 155.72 220.40 148.11   A 0.62 0.62 0.0 0 1 220.35 147.08   Q 229.58 140.22 239.27 133.73   C 242.66 131.45 246.12 131.37 250.00 131.06   Q 251.12 130.97 251.83 130.34   A 0.65 0.65 0.0 0 0 251.87 129.40   Q 250.91 128.42 249.58 127.96   A 0.72 0.72 0.0 0 1 249.40 126.69   L 322.22 75.70   A 1.15 1.13 44.7 0 1 323.53 75.70   L 372.99 110.34   A 0.86 0.80 35.6 0 1 373.22 111.50   L 368.36 118.21   Z   M 274.31 218.94   A 0.95 0.94 -62.2 0 1 274.67 220.12   L 270.09 230.45   A 1.32 1.31 -62.8 0 0 270.61 232.10   L 321.73 263.22   A 2.14 2.14 0.0 0 0 323.97 263.22   L 375.43 231.95   A 1.13 1.13 0.0 0 0 375.84 230.44   Q 373.08 225.39 371.23 219.74   C 370.05 216.15 369.42 211.62 368.37 207.56   C 367.57 204.52 365.66 201.05 364.73 197.25   Q 356.46 163.28 372.40 132.46   Q 372.79 131.70 372.09 131.21   L 323.92 97.25   A 1.76 1.76 0.0 0 0 321.90 97.25   L 273.96 131.00   A 1.28 1.27 -31.7 0 0 273.57 132.64   C 284.64 153.43 287.18 177.90 280.13 200.46   C 279.17 203.52 277.45 207.09 276.33 210.48   A 1.37 1.37 0.0 0 1 275.24 211.41   L 266.79 212.70   A 0.75 0.74 -33.5 0 0 266.51 214.07   L 274.31 218.94   Z   M 250.29 149.18   C 265.40 163.78 275.98 183.03 276.76 204.36   Q 276.77 204.60 277.00 204.56   Q 277.14 204.54 277.27 204.51   Q 277.43 204.49 277.47 204.33   Q 278.53 200.43 278.68 198.25   Q 280.86 166.62 261.11 141.69   A 1.58 1.57 -37.0 0 0 258.96 141.39   L 250.42 147.45   A 1.13 1.13 0.0 0 0 250.29 149.18   Z   M 384.82 141.70   C 370.90 159.35 364.60 180.84 367.84 203.12   Q 367.98 204.12 368.48 203.23   Q 368.79 202.68 368.91 201.49   C 371.08 181.16 380.66 163.12 395.46 149.36   A 1.27 1.27 0.0 0 0 395.33 147.40   L 386.82 141.41   A 1.46 1.46 0.0 0 0 384.82 141.70   Z   M 417.66 192.07   A 1.54 1.54 0.0 0 0 416.12 190.53   L 389.80 190.53   A 1.54 1.54 0.0 0 0 388.26 192.07   L 388.26 192.23   A 1.54 1.54 0.0 0 0 389.80 193.77   L 416.12 193.77   A 1.54 1.54 0.0 0 0 417.66 192.23   L 417.66 192.07   Z   M 257.8000 193.6960   A 1.42 1.42 0.0 0 0 256.3825 192.2736   L 229.3826 192.2264   A 1.42 1.42 0.0 0 0 227.9601 193.6440   L 227.9600 193.7040   A 1.42 1.42 0.0 0 0 229.3775 195.1264   L 256.3774 195.1736   A 1.42 1.42 0.0 0 0 257.7999 193.7560   L 257.8000 193.6960   Z" id="svg_1" class="" fill-opacity="1" stroke="#6d6d6d" stroke-opacity="1"/><path fill="#f9f1f1" d="   M 313.34 193.64   C 316.01 203.53 328.11 204.46 331.73 194.31   Q 332.21 192.99 333.51 193.52   L 343.26 197.48   A 1.03 1.02 -64.8 0 1 343.77 198.92   Q 335.27 214.59 317.49 211.76   C 291.47 207.62 291.86 158.34 321.53 157.27   C 329.50 156.98 336.31 159.79 341.13 166.10   A 0.94 0.94 0.0 0 1 340.75 167.53   L 331.45 171.47   A 1.81 1.80 -31.8 0 1 329.37 170.99   Q 326.30 167.44 321.21 167.97   C 310.74 169.05 311.46 186.68 313.34 193.64   Z" id="svg_2" class="" fill-opacity="1" stroke="#6d6d6d" stroke-opacity="1"/><path fill="#f9f1f1" d="   M 472.10 200.63   A 0.67 0.66 -3.3 0 0 471.48 200.08   Q 459.47 199.44 449.83 206.40   Q 449.02 206.99 448.18 206.45   Q 437.59 199.66 425.76 204.21   A 0.98 0.98 0.0 0 1 424.42 203.30   L 424.39 186.73   A 0.91 0.91 0.0 0 1 425.64 185.88   C 433.41 189.01 441.68 188.07 448.71 183.55   A 0.75 0.74 -41.9 0 1 449.59 183.59   C 454.62 187.53 464.79 191.92 471.51 189.80   A 0.96 0.96 0.0 0 0 472.15 189.10   C 472.40 188.00 472.46 186.12 473.67 185.75   A 0.67 0.66 81.4 0 1 474.53 186.39   L 474.39 203.70   A 0.67 0.67 0.0 0 1 473.74 204.37   Q 473.52 204.37 473.30 204.39   A 0.58 0.57 -6.8 0 1 472.70 203.92   L 472.10 200.63   Z" id="svg_3" class="" fill-opacity="1" stroke="#6d6d6d" stroke-opacity="1"/><path fill="#f9f1f1" d="   M 173.57 190.67   A 1.21 1.21 0.0 0 0 174.66 191.68   Q 186.50 192.64 195.73 185.44   A 1.49 1.48 41.8 0 1 197.42 185.35   C 204.09 189.46 212.59 191.16 219.92 187.55   A 0.94 0.94 0.0 0 1 221.28 188.39   L 221.42 205.04   A 0.86 0.86 0.0 0 1 220.25 205.85   Q 208.42 201.35 197.73 207.94   A 1.71 1.71 0.0 0 1 195.85 207.88   Q 186.30 201.19 174.50 201.56   A 0.86 0.85 12.8 0 0 173.78 202.01   Q 173.16 203.24 173.27 204.62   A 1.30 1.30 0.0 0 1 172.38 205.96   L 172.04 206.07   A 0.57 0.57 0.0 0 1 171.29 205.53   L 171.19 187.66   Q 171.19 186.68 172.09 187.07   L 172.36 187.20   A 1.47 1.46 -82.8 0 1 173.21 188.30   L 173.57 190.67   Z" id="svg_4" class="" fill-opacity="1" stroke="#6d6d6d" stroke-opacity="1"/><path fill="#f9f1f1" d="   M 488.03 185.09   L 491.03 186.01   A 0.53 0.53 0.0 0 1 491.36 186.29   L 493.46 190.76   A 0.53 0.53 0.0 0 1 492.98 191.51   L 477.35 191.52   A 0.53 0.53 0.0 0 1 477.11 190.52   L 487.63 185.13   A 0.53 0.53 0.0 0 1 488.03 185.09   Z" id="svg_5" class="" fill-opacity="1" stroke="#6d6d6d" stroke-opacity="1"/><path fill="#f9f1f1" d="   M 168.02 193.02   L 152.93 192.99   A 0.64 0.64 0.0 0 1 152.36 192.07   L 154.61 187.58   A 0.64 0.64 0.0 0 1 155.00 187.25   L 157.66 186.47   A 0.64 0.64 0.0 0 1 158.14 186.52   L 168.32 191.81   A 0.64 0.64 0.0 0 1 168.02 193.02   Z" id="svg_6" class="" fill-opacity="1" stroke="#6d6d6d" stroke-opacity="1"/><path fill="#f9f1f1" d="   M 488.44 206.90   L 477.35 201.32   A 2.47 2.47 0.0 0 1 475.99 199.11   L 476.00 196.29   A 2.47 2.47 0.0 0 1 478.45 193.83   L 491.10 193.76   A 2.47 2.47 0.0 0 1 493.54 196.67   L 491.98 205.14   A 2.47 2.47 0.0 0 1 488.44 206.90   Z" id="svg_7" class="" fill-opacity="1" stroke="#6d6d6d" stroke-opacity="1"/><path fill="#f9f1f1" d="   M 154.71 195.32   L 167.09 195.34   A 2.56 2.56 0.0 0 1 169.65 197.95   L 169.60 200.87   A 2.56 2.56 0.0 0 1 168.17 203.12   L 157.48 208.42   A 2.56 2.56 0.0 0 1 153.83 206.63   L 152.20 198.37   A 2.56 2.56 0.0 0 1 154.71 195.32   Z" id="svg_8" class="" fill-opacity="1" stroke="#6d6d6d" stroke-opacity="1"/><path fill="#f9f1f1" d="   M 521.49 314.50   L 521.56 301.64   A 1.18 1.18 0.0 0 1 522.83 300.47   L 530.50 301.01   A 1.18 1.18 0.0 0 1 531.60 302.22   L 530.48 338.49   A 1.18 1.18 0.0 0 1 529.22 339.63   L 521.77 339.16   A 1.18 1.18 0.0 0 1 520.67 337.94   L 521.09 325.67   A 1.18 1.18 0.0 0 0 520.01 324.45   L 515.39 324.08   A 1.18 1.18 0.0 0 0 514.12 325.22   L 513.71 337.85   A 1.18 1.18 0.0 0 1 512.58 338.99   L 505.22 339.32   A 1.18 1.18 0.0 0 1 503.98 338.14   L 504.07 301.49   A 1.18 1.18 0.0 0 1 505.27 300.32   L 513.91 300.49   A 1.18 1.18 0.0 0 1 515.07 301.73   L 514.53 313.99   A 1.18 1.18 0.0 0 0 515.59 315.22   L 520.19 315.67   A 1.18 1.18 0.0 0 0 521.49 314.50   Z" id="svg_9" class="" fill-opacity="1" stroke="#6d6d6d" stroke-opacity="1"/><path fill="#f9f1f1" d="   M 125.42 307.73   A 1.38 1.38 0.0 0 0 123.99 309.13   L 124.30 331.42   A 1.59 1.58 -86.6 0 0 125.67 332.97   L 130.44 333.64   A 1.38 1.37 -82.3 0 0 131.99 332.45   L 132.37 329.64   A 1.68 1.68 0.0 0 1 134.12 328.19   L 139.49 328.48   Q 141.19 328.57 141.27 330.27   C 141.47 334.33 142.36 340.17 136.82 339.91   C 130.65 339.62 124.30 339.90 117.90 339.78   A 3.34 3.34 0.0 0 1 114.62 336.46   L 114.48 303.14   A 2.53 2.52 89.2 0 1 116.94 300.60   Q 127.02 300.36 136.27 300.68   Q 139.25 300.78 140.48 301.65   C 143.05 303.45 141.78 309.50 141.39 312.45   A 1.36 1.36 0.0 0 1 140.02 313.63   L 133.44 313.52   A 1.11 1.10 -2.6 0 1 132.35 312.53   L 132.00 309.39   A 1.68 1.68 0.0 0 0 130.40 307.90   L 125.42 307.73   Z" id="svg_10" class="" fill-opacity="1" stroke="#6d6d6d" stroke-opacity="1"/><path fill="#f9f1f1" d="   M 188.36 300.58   A 2.93 2.93 0.0 0 1 191.28 303.52   L 191.17 334.63   A 5.38 4.46 -89.8 0 1 186.69 339.99   L 168.65 339.93   A 5.38 4.46 -89.8 0 1 164.21 334.53   L 164.32 303.42   A 2.93 2.93 0.0 0 1 167.26 300.50   L 188.36 300.58   Z   M 174.04 330.62   A 1.27 1.27 0.0 0 0 175.20 331.88   L 179.97 332.26   A 1.27 1.27 0.0 0 0 181.34 331.01   L 181.57 310.05   A 1.27 1.27 0.0 0 0 180.37 308.77   L 175.29 308.48   A 1.27 1.27 0.0 0 0 173.95 309.75   L 174.04 330.62   Z" id="svg_11" class="" fill-opacity="1" stroke="#6d6d6d" stroke-opacity="1"/><path fill="#f9f1f1" d="   M 273.62 315.28   L 279.58 315.36   A 1.21 1.21 0.0 0 1 280.77 316.61   L 280.60 322.47   A 1.21 1.21 0.0 0 1 279.29 323.64   L 273.55 323.15   A 1.21 1.21 0.0 0 0 272.23 324.36   L 272.25 329.70   A 1.21 1.21 0.0 0 0 273.44 330.90   L 284.70 331.02   A 1.21 1.21 0.0 0 1 285.89 332.17   L 286.18 338.44   A 1.21 1.21 0.0 0 1 284.97 339.70   L 263.97 339.62   A 1.21 1.21 0.0 0 1 262.77 338.41   L 262.75 301.65   A 1.21 1.21 0.0 0 1 264.00 300.44   L 284.41 301.02   A 1.21 1.21 0.0 0 1 285.58 302.31   L 285.19 308.66   A 1.21 1.21 0.0 0 1 283.95 309.79   L 273.50 309.47   A 1.21 1.21 0.0 0 0 272.26 310.74   L 272.43 314.13   A 1.21 1.21 0.0 0 0 273.62 315.28   Z" id="svg_12" class="" fill-opacity="1" stroke="#6d6d6d" stroke-opacity="1"/><path fill="#f9f1f1" d="   M 318.82 307.73   Q 317.32 307.68 317.36 309.18   L 318.00 332.14   Q 318.02 332.76 318.62 332.84   L 323.63 333.52   A 1.58 1.58 0.0 0 0 325.42 332.11   L 325.73 328.99   A 0.97 0.97 0.0 0 1 326.77 328.11   L 333.59 328.59   A 1.09 1.08 0.3 0 1 334.60 329.60   Q 334.84 332.85 334.68 335.50   C 334.39 340.23 331.32 339.77 327.26 339.83   C 322.24 339.91 313.34 341.02 308.93 338.95   A 2.02 2.02 0.0 0 1 307.77 337.14   L 307.50 303.13   A 2.57 2.56 -0.6 0 1 310.04 300.55   Q 319.65 300.45 330.25 300.65   C 337.34 300.78 335.15 307.72 334.75 312.20   Q 334.63 313.51 333.31 313.51   L 327.06 313.51   Q 325.85 313.51 325.67 312.31   L 325.26 309.48   Q 325.04 307.95 323.49 307.89   L 318.82 307.73   Z" id="svg_13" class="" fill-opacity="1" stroke="#6d6d6d" stroke-opacity="1"/><path fill="#f9f1f1" d="   M 368.28 330.99   L 380.04 330.98   Q 381.35 330.98 381.48 332.28   L 382.13 338.75   Q 382.25 339.99 381.00 339.99   L 358.24 339.98   A 0.67 0.67 0.0 0 1 357.57 339.34   Q 357.14 330.36 357.41 321.24   Q 357.71 311.13 357.75 301.27   A 0.69 0.68 -87.6 0 1 358.48 300.59   L 366.67 301.19   A 1.21 1.20 3.0 0 1 367.79 302.42   L 367.09 329.77   A 1.19 1.19 0.0 0 0 368.28 330.99   Z" id="svg_14" class="" fill-opacity="1" stroke="#6d6d6d" stroke-opacity="1"/><path fill="#f9f1f1" d="   M 414.10 329.47   L 413.32 338.24   Q 413.20 339.66 411.77 339.74   L 405.70 340.04   A 1.35 1.34 -0.0 0 1 404.29 338.64   L 405.83 304.57   Q 405.97 301.64 408.90 301.53   Q 417.84 301.19 427.25 300.56   C 429.92 300.39 431.92 304.18 431.99 306.50   Q 432.25 315.25 432.56 338.61   Q 432.58 339.95 431.23 339.96   L 424.32 339.98   Q 422.90 339.99 422.89 338.57   L 422.76 328.71   A 1.21 1.21 0.0 0 0 421.45 327.52   L 415.54 328.04   Q 414.22 328.16 414.10 329.47   Z   M 422.6186 311.5905   A 1.18 1.18 0.0 0 0 421.4573 310.3921   L 416.1779 310.3091   A 1.18 1.18 0.0 0 0 414.9795 311.4705   L 414.8614 318.9895   A 1.18 1.18 0.0 0 0 416.0227 320.1879   L 421.3021 320.2709   A 1.18 1.18 0.0 0 0 422.5005 319.1095   L 422.6186 311.5905   Z" id="svg_15" class="" fill-opacity="1" stroke="#6d6d6d" stroke-opacity="1"/><path fill="#f9f1f1" d="   M 466.16 316.19   Q 471.32 316.54 477.50 317.13   C 478.80 317.26 479.59 317.02 480.32 318.30   C 483.06 323.09 482.08 330.07 481.72 335.55   A 4.21 4.20 1.3 0 1 477.60 339.48   Q 470.31 339.61 462.45 339.90   Q 458.16 340.06 458.01 340.03   C 453.55 339.29 454.85 331.85 455.35 327.97   Q 455.54 326.50 457.02 326.56   L 462.22 326.79   Q 463.77 326.86 463.77 328.42   Q 463.78 329.64 464.30 330.70   A 0.86 0.85 -13.7 0 0 465.08 331.17   L 470.83 331.05   Q 472.43 331.02 472.51 329.42   L 472.69 326.10   Q 472.79 324.41 471.10 324.21   L 457.96 322.64   A 3.39 3.39 0.0 0 1 454.97 319.22   L 455.22 304.31   A 2.86 2.84 -0.6 0 1 457.97 301.51   C 465.45 301.23 473.35 299.47 480.49 302.15   A 1.25 1.25 0.0 0 1 481.30 303.26   L 481.67 310.95   A 1.80 1.79 -4.4 0 1 480.06 312.82   L 474.87 313.37   Q 473.40 313.53 473.13 312.08   C 472.39 308.21 469.09 309.41 466.44 309.63   A 1.79 1.79 0.0 0 0 464.79 311.35   L 464.69 314.56   Q 464.64 316.09 466.16 316.19   Z" id="svg_16" class="" fill-opacity="1" stroke="#6d6d6d" stroke-opacity="1"/><path fill="#f9f1f1" d="   M 213.61 301.34   A 0.21 0.21 0.0 0 1 213.83 301.14   L 231.28 301.35   A 9.61 8.09 0.7 0 1 240.80 309.56   L 240.52 331.84   A 9.61 8.09 0.7 0 1 230.81 339.81   L 213.36 339.59   A 0.21 0.21 0.0 0 1 213.15 339.38   L 213.61 301.34   Z   M 223.60 331.02   A 1.17 1.17 0.0 0 0 225.03 332.14   L 230.19 330.95   A 1.17 1.17 0.0 0 0 231.10 329.83   L 231.38 312.77   A 1.17 1.17 0.0 0 0 230.53 311.62   L 224.64 309.99   A 1.17 1.17 0.0 0 0 223.16 311.14   L 223.60 331.02   Z" id="svg_17" class="" fill-opacity="1" stroke="#6d6d6d" stroke-opacity="1"/></g></svg>