<?xml version="1.0" encoding="UTF-8" standalone="no"?>
<!DOCTYPE svg PUBLIC "-//W3C//DTD SVG 1.1//EN" "http://www.w3.org/Graphics/SVG/1.1/DTD/svg11.dtd">
<svg xmlns="http://www.w3.org/2000/svg" version="1.1" viewBox="0.00 0.00 500.00 500.00">
<g stroke-width="2.00" fill="none" stroke-linecap="butt">
<path stroke="#cdcfd2" vector-effect="non-scaling-stroke" d="
  M 149.58 110.37
  L 150.21 110.17
  Q 150.58 110.06 150.52 110.44
  L 148.35 123.99
  A 0.25 0.25 0.0 0 0 148.75 124.23
  C 153.12 120.90 156.63 117.19 161.16 113.36
  C 164.64 110.40 170.67 104.18 170.39 99.47"
/>
<path stroke="#cdcfd2" vector-effect="non-scaling-stroke" d="
  M 216.22 215.77
  Q 210.55 209.36 204.88 203.30
  C 198.28 196.24 191.47 188.35 184.56 181.05
  C 177.56 173.65 171.04 165.82 164.04 158.41
  C 157.25 151.22 151.18 143.49 144.63 136.12
  A 0.55 0.55 0.0 0 0 143.87 136.06
  C 135.04 143.45 127.46 152.14 118.08 158.61
  Q 116.10 159.97 117.63 158.12
  C 121.42 153.52 124.33 149.27 127.74 143.40
  C 130.56 138.53 134.16 133.12 136.85 126.91
  Q 137.04 126.46 136.76 126.06
  C 130.74 117.55 121.84 110.76 115.07 102.68
  C 108.93 95.35 101.02 88.91 95.30 82.72
  C 88.95 75.85 80.40 68.73 75.58 64.08
  Q 68.79 57.56 64.96 54.03
  Q 64.77 53.85 64.29 53.80"
/>
<path stroke="#b6b8bf" stroke-opacity="0.933" vector-effect="non-scaling-stroke" d="
  M 64.29 53.80
  L 62.36 52.61"
/>
<path stroke="#cdcfd2" vector-effect="non-scaling-stroke" d="
  M 62.36 52.61
  Q 62.70 52.99 61.63 52.82"
/>
<path stroke="#828691" stroke-opacity="0.933" vector-effect="non-scaling-stroke" d="
  M 62.36 52.61
  Q 62.78 54.35 64.13 54.26
  Q 64.34 54.25 64.37 54.04
  Q 64.39 53.92 64.29 53.80"
/>
<path stroke="#cdcfd2" vector-effect="non-scaling-stroke" d="
  M 110.31 171.11
  Q 114.31 161.96 115.83 152.41"
/>
<path stroke="#cdcfd2" vector-effect="non-scaling-stroke" d="
  M 398.45 115.54
  Q 400.31 105.77 401.26 103.00
  C 405.85 89.65 413.86 76.80 422.17 63.97
  Q 424.29 60.71 421.21 63.08
  C 417.88 65.64 414.95 68.68 411.77 71.43
  C 404.58 77.66 396.92 86.39 391.53 91.29
  Q 388.01 94.48 385.67 97.06
  C 379.94 103.34 374.04 109.51 367.89 115.39
  C 364.44 118.68 361.50 122.70 358.10 126.08
  Q 357.70 126.48 357.93 127.00
  Q 361.09 134.12 365.60 139.88
  Q 368.61 143.71 372.10 145.56"
/>
<path stroke="#b6b8bf" stroke-opacity="0.933" vector-effect="non-scaling-stroke" d="
  M 372.10 145.56
  L 378.05 149.24
  Q 378.54 149.55 378.95 149.13
  Q 379.47 148.59 379.79 147.70"
/>
<path stroke="#cdcfd2" vector-effect="non-scaling-stroke" d="
  M 379.79 147.70
  Q 379.87 147.04 380.25 146.59"
/>
<path stroke="#cdcfd2" vector-effect="non-scaling-stroke" d="
  M 377.68 156.72
  Q 374.22 151.65 369.40 147.92
  C 363.36 143.24 358.61 137.74 352.19 133.30
  Q 351.75 133.00 351.79 133.53
  L 351.86 134.29
  A 0.24 0.24 0.0 0 0 352.00 134.49
  Q 353.25 135.06 353.96 135.97
  Q 354.44 136.58 353.71 136.34
  L 350.74 135.36
  Q 350.27 135.20 349.94 135.58
  C 344.38 142.05 339.01 148.60 333.01 154.68
  C 327.33 160.41 322.94 165.56 318.00 171.19
  C 313.78 176.00 307.87 181.43 303.39 186.89
  C 295.05 197.06 285.80 205.50 277.69 215.77"
/>
<path stroke="#828691" stroke-opacity="0.933" vector-effect="non-scaling-stroke" d="
  M 379.79 147.70
  L 379.07 146.81
  A 0.74 0.73 -39.8 0 0 378.03 146.72
  Q 377.80 146.92 377.50 147.01
  Q 376.93 147.21 376.87 147.20
  Q 376.64 147.18 376.46 147.38
  A 0.58 0.58 0.0 0 1 375.57 147.38
  Q 374.00 145.46 372.10 145.56"
/>
<path stroke="#cdcfd2" vector-effect="non-scaling-stroke" d="
  M 139.7076 131.7542
  A 0.34 0.34 0.0 0 0 139.6590 131.2758
  L 139.6280 131.2505
  A 0.34 0.34 0.0 0 0 139.1496 131.2991
  L 129.7324 142.8458
  A 0.34 0.34 0.0 0 0 129.7810 143.3242
  L 129.8120 143.3495
  A 0.34 0.34 0.0 0 0 130.2904 143.3009
  L 139.7076 131.7542"
/>
</g>
<path fill="#fdfdfd" d="
  M 149.58 110.37
  L 150.21 110.17
  Q 150.58 110.06 150.52 110.44
  L 148.35 123.99
  A 0.25 0.25 0.0 0 0 148.75 124.23
  C 153.12 120.90 156.63 117.19 161.16 113.36
  C 164.64 110.40 170.67 104.18 170.39 99.47
  Q 170.83 94.25 169.75 89.23
  Q 169.64 88.74 170.08 88.97
  C 176.13 92.15 184.38 97.62 187.07 104.20
  A 0.51 0.50 71.9 0 1 186.73 104.88
  C 183.48 105.70 180.16 106.45 177.27 107.83
  C 167.72 112.42 160.01 120.81 163.67 132.06
  Q 164.40 134.30 166.53 136.42
  C 173.09 142.95 177.34 149.20 182.94 154.97
  C 188.61 160.81 193.84 166.65 198.98 172.97
  C 201.19 175.69 204.17 178.30 206.17 180.52
  C 210.47 185.28 214.81 189.97 218.81 194.99
  C 220.14 196.66 221.97 198.22 223.17 199.54
  Q 230.49 207.57 237.45 215.27
  Q 238.17 216.07 237.09 216.05
  L 216.22 215.77
  Q 210.55 209.36 204.88 203.30
  C 198.28 196.24 191.47 188.35 184.56 181.05
  C 177.56 173.65 171.04 165.82 164.04 158.41
  C 157.25 151.22 151.18 143.49 144.63 136.12
  A 0.55 0.55 0.0 0 0 143.87 136.06
  C 135.04 143.45 127.46 152.14 118.08 158.61
  Q 116.10 159.97 117.63 158.12
  C 121.42 153.52 124.33 149.27 127.74 143.40
  C 130.56 138.53 134.16 133.12 136.85 126.91
  Q 137.04 126.46 136.76 126.06
  C 130.74 117.55 121.84 110.76 115.07 102.68
  C 108.93 95.35 101.02 88.91 95.30 82.72
  C 88.95 75.85 80.40 68.73 75.58 64.08
  Q 68.79 57.56 64.96 54.03
  Q 64.77 53.85 64.29 53.80
  L 62.36 52.61
  Q 62.70 52.99 61.63 52.82
  L 60.63 51.33
  Q 60.38 50.96 60.80 51.12
  Q 65.39 52.79 69.69 55.00
  C 79.91 60.24 90.28 65.08 100.67 69.96
  C 104.34 71.68 110.69 73.70 115.47 76.21
  Q 117.95 77.50 120.01 79.99
  Q 127.86 89.43 130.70 92.30
  Q 135.20 96.86 136.34 98.46
  Q 142.72 107.41 149.58 110.37
  Z
  M 139.7076 131.7542
  A 0.34 0.34 0.0 0 0 139.6590 131.2758
  L 139.6280 131.2505
  A 0.34 0.34 0.0 0 0 139.1496 131.2991
  L 129.7324 142.8458
  A 0.34 0.34 0.0 0 0 129.7810 143.3242
  L 129.8120 143.3495
  A 0.34 0.34 0.0 0 0 130.2904 143.3009
  L 139.7076 131.7542
  Z"
/>
<path fill="#fdfdfd" d="
  M 398.45 115.54
  Q 400.31 105.77 401.26 103.00
  C 405.85 89.65 413.86 76.80 422.17 63.97
  Q 424.29 60.71 421.21 63.08
  C 417.88 65.64 414.95 68.68 411.77 71.43
  C 404.58 77.66 396.92 86.39 391.53 91.29
  Q 388.01 94.48 385.67 97.06
  C 379.94 103.34 374.04 109.51 367.89 115.39
  C 364.44 118.68 361.50 122.70 358.10 126.08
  Q 357.70 126.48 357.93 127.00
  Q 361.09 134.12 365.60 139.88
  Q 368.61 143.71 372.10 145.56
  L 378.05 149.24
  Q 378.54 149.55 378.95 149.13
  Q 379.47 148.59 379.79 147.70
  Q 379.87 147.04 380.25 146.59
  C 387.58 151.07 398.25 151.64 403.55 144.35
  Q 404.41 143.17 404.27 144.63
  C 403.83 149.35 400.89 154.99 396.13 156.51
  Q 394.32 157.09 389.32 156.77
  Q 383.54 156.41 377.68 156.72
  Q 374.22 151.65 369.40 147.92
  C 363.36 143.24 358.61 137.74 352.19 133.30
  Q 351.75 133.00 351.79 133.53
  L 351.86 134.29
  A 0.24 0.24 0.0 0 0 352.00 134.49
  Q 353.25 135.06 353.96 135.97
  Q 354.44 136.58 353.71 136.34
  L 350.74 135.36
  Q 350.27 135.20 349.94 135.58
  C 344.38 142.05 339.01 148.60 333.01 154.68
  C 327.33 160.41 322.94 165.56 318.00 171.19
  C 313.78 176.00 307.87 181.43 303.39 186.89
  C 295.05 197.06 285.80 205.50 277.69 215.77
  L 256.58 215.98
  Q 256.14 215.99 256.41 215.64
  Q 264.81 204.63 270.21 199.23
  Q 277.37 192.09 281.31 187.05
  C 286.92 179.86 293.36 173.58 299.35 166.86
  C 301.02 164.99 304.47 160.34 307.41 157.42
  C 313.14 151.74 318.49 145.58 323.48 139.25
  C 325.24 137.02 327.82 135.20 328.88 132.73
  C 331.82 125.88 330.40 118.79 324.96 113.71
  C 323.28 112.13 321.80 110.56 319.83 109.40
  Q 313.72 105.80 306.84 103.97
  Q 306.31 103.82 306.42 103.28
  Q 307.87 96.50 313.43 92.51
  Q 313.90 92.18 313.90 92.75
  Q 313.87 100.57 321.08 103.53
  Q 322.02 103.91 321.44 103.08
  C 314.91 93.55 321.30 83.49 332.41 84.60
  Q 336.92 85.05 332.43 85.66
  C 327.18 86.37 324.16 91.61 325.26 96.68
  C 327.09 105.12 339.34 109.81 346.91 111.07
  Q 347.40 111.15 347.72 110.78
  C 352.83 104.90 357.77 98.72 363.20 93.17
  C 364.36 91.99 365.27 90.37 366.21 89.26
  Q 370.04 84.73 373.92 80.24
  Q 375.74 78.14 378.13 76.97
  Q 381.79 75.18 385.54 73.62
  C 399.94 67.59 414.04 60.80 427.95 53.71
  Q 430.66 52.32 433.54 51.28
  Q 433.99 51.11 433.75 51.53
  C 431.22 55.90 429.25 59.48 426.92 64.75
  C 425.16 68.72 422.29 73.20 420.75 76.07
  C 417.32 82.48 413.91 88.84 410.27 95.14
  Q 408.26 98.61 406.10 103.32
  Q 403.66 108.63 398.45 115.54
  Z"
/>
<path fill="#9ca0a7" d="
  M 61.63 52.82
  Q 62.70 52.99 62.36 52.61
  Q 62.78 54.35 64.13 54.26
  Q 64.34 54.25 64.37 54.04
  Q 64.39 53.92 64.29 53.80
  Q 64.77 53.85 64.96 54.03
  Q 68.79 57.56 75.58 64.08
  C 80.40 68.73 88.95 75.85 95.30 82.72
  C 101.02 88.91 108.93 95.35 115.07 102.68
  C 121.84 110.76 130.74 117.55 136.76 126.06
  Q 137.04 126.46 136.85 126.91
  C 134.16 133.12 130.56 138.53 127.74 143.40
  C 124.33 149.27 121.42 153.52 117.63 158.12
  Q 116.10 159.97 118.08 158.61
  C 127.46 152.14 135.04 143.45 143.87 136.06
  A 0.55 0.55 0.0 0 1 144.63 136.12
  C 151.18 143.49 157.25 151.22 164.04 158.41
  C 171.04 165.82 177.56 173.65 184.56 181.05
  C 191.47 188.35 198.28 196.24 204.88 203.30
  Q 210.55 209.36 216.22 215.77
  L 195.75 216.08
  Q 195.24 216.09 194.83 215.78
  Q 193.48 214.74 192.05 213.20
  Q 176.84 196.78 161.75 180.23
  C 160.26 178.60 158.50 177.15 157.12 175.56
  C 150.18 167.62 142.94 158.90 134.16 152.97
  A 0.63 0.63 0.0 0 0 133.18 153.44
  L 131.70 172.46
  Q 131.64 173.16 131.11 172.69
  Q 129.98 171.70 129.00 170.79
  C 122.40 164.73 117.05 167.30 110.31 171.11
  Q 114.31 161.96 115.83 152.41
  C 117.97 149.35 118.73 143.78 119.96 140.07
  Q 120.12 139.60 119.82 139.22
  C 118.27 137.23 116.24 135.79 114.77 133.82
  C 110.31 127.79 104.61 122.11 99.65 116.44
  C 95.56 111.78 94.86 105.63 91.51 100.46
  Q 86.91 93.35 81.82 86.57
  Q 81.46 86.09 80.86 86.05
  L 76.83 85.75
  A 1.25 1.24 -11.5 0 1 75.81 85.08
  C 73.63 80.75 72.30 75.72 70.45 71.76
  Q 66.04 62.31 61.63 52.82
  Z"
/>
<path fill="#656877" fill-opacity="0.867" d="
  M 62.36 52.61
  L 64.29 53.80
  Q 64.39 53.92 64.37 54.04
  Q 64.34 54.25 64.13 54.26
  Q 62.78 54.35 62.36 52.61
  Z"
/>
<path fill="#fdfdfd" d="
  M 321.68 74.10
  C 318.55 72.81 314.94 72.13 312.14 71.17
  Q 294.70 65.16 279.00 62.73
  Q 233.64 55.71 189.81 68.92
  Q 184.90 70.40 179.99 71.87
  C 166.21 75.99 152.80 82.93 140.91 90.69
  Q 139.67 91.50 138.71 90.36
  L 136.16 87.30
  A 1.45 1.44 -37.1 0 1 136.46 85.18
  C 152.09 74.58 168.92 67.43 187.04 61.96
  Q 231.99 48.39 278.97 55.66
  Q 307.20 60.02 333.26 71.64
  C 335.35 72.58 337.62 73.28 339.53 74.32
  Q 348.14 78.99 358.58 85.61
  Q 359.88 86.43 358.86 87.58
  L 356.16 90.67
  Q 355.20 91.76 353.98 90.97
  Q 338.90 81.17 321.68 74.10
  Z"
/>
<path fill="#9ca0a7" d="
  M 398.45 115.54
  L 376.22 139.20
  Q 375.39 140.08 375.88 141.19
  Q 377.39 144.63 380.25 146.59
  Q 379.87 147.04 379.79 147.70
  L 379.07 146.81
  A 0.74 0.73 -39.8 0 0 378.03 146.72
  Q 377.80 146.92 377.50 147.01
  Q 376.93 147.21 376.87 147.20
  Q 376.64 147.18 376.46 147.38
  A 0.58 0.58 0.0 0 1 375.57 147.38
  Q 374.00 145.46 372.10 145.56
  Q 368.61 143.71 365.60 139.88
  Q 361.09 134.12 357.93 127.00
  Q 357.70 126.48 358.10 126.08
  C 361.50 122.70 364.44 118.68 367.89 115.39
  C 374.04 109.51 379.94 103.34 385.67 97.06
  Q 388.01 94.48 391.53 91.29
  C 396.92 86.39 404.58 77.66 411.77 71.43
  C 414.95 68.68 417.88 65.64 421.21 63.08
  Q 424.29 60.71 422.17 63.97
  C 413.86 76.80 405.85 89.65 401.26 103.00
  Q 400.31 105.77 398.45 115.54
  Z"
/>
<rect fill="#fdfdfd" x="-2.89" y="-1.83" transform="translate(240.62,74.56) rotate(-1.1)" width="5.78" height="3.66" rx="0.45"/>
<rect fill="#fdfdfd" x="-3.00" y="-1.95" transform="translate(255.46,74.82) rotate(3.1)" width="6.00" height="3.90" rx="0.64"/>
<rect fill="#fdfdfd" x="-3.13" y="-1.90" transform="translate(223.63,76.03) rotate(-8.5)" width="6.26" height="3.80" rx="0.73"/>
<rect fill="#fdfdfd" x="-2.86" y="-2.08" transform="translate(270.19,76.35) rotate(12.3)" width="5.72" height="4.16" rx="0.61"/>
<rect fill="#fdfdfd" x="-3.50" y="-1.88" transform="translate(285.89,78.98) rotate(17.0)" width="7.00" height="3.76" rx="0.67"/>
<rect fill="#fdfdfd" x="-3.49" y="-1.89" transform="translate(206.90,79.37) rotate(-15.9)" width="6.98" height="3.78" rx="0.72"/>
<path fill="#68687c" fill-opacity="0.608" d="
  M 247.07 84.89
  C 250.15 83.22 254.07 85.50 257.14 86.68
  A 0.47 0.47 0.0 0 1 257.31 87.45
  L 256.97 87.78
  Q 256.36 88.40 255.53 88.17
  Q 253.24 87.52 250.90 88.08
  Q 250.43 88.20 250.04 87.91
  L 247.01 85.70
  A 0.48 0.48 0.0 0 1 247.07 84.89
  Z"
/>
<rect fill="#68687c" fill-opacity="0.608" x="-5.55" y="-1.47" transform="translate(235.52,87.68) rotate(-5.9)" width="11.10" height="2.94" rx="1.28"/>
<path fill="#68687c" fill-opacity="0.608" d="
  M 271.98 87.59
  A 0.15 0.15 0.0 0 1 272.11 87.76
  L 272.10 87.86
  A 4.04 2.43 6.6 0 1 267.81 89.81
  L 265.07 89.49
  A 4.04 2.43 6.6 0 1 261.33 86.61
  L 261.34 86.51
  A 0.15 0.15 0.0 0 1 261.51 86.38
  L 271.98 87.59
  Z"
/>
<rect fill="#656877" fill-opacity="0.867" x="-6.02" y="-1.48" transform="translate(282.00,91.24) rotate(11.2)" width="12.04" height="2.96" rx="1.31"/>
<path fill="#68687c" fill-opacity="0.608" d="
  M 292.77 94.30
  A 0.23 0.23 0.0 0 1 292.57 93.98
  L 292.79 93.42
  A 1.10 1.08 -84.6 0 1 293.57 92.76
  Q 295.44 92.36 297.23 92.86
  Q 297.59 92.96 297.25 93.10
  L 294.08 94.50
  Q 293.69 94.67 293.33 94.44
  Q 293.14 94.32 292.77 94.30
  Z"
/>
<path fill="#9ca0a7" d="
  M 170.39 99.47
  C 170.67 104.18 164.64 110.40 161.16 113.36
  C 156.63 117.19 153.12 120.90 148.75 124.23
  A 0.25 0.25 0.0 0 1 148.35 123.99
  L 150.52 110.44
  Q 150.58 110.06 150.21 110.17
  L 149.58 110.37
  Q 163.71 107.51 169.72 97.35
  A 0.20 0.20 0.0 0 1 170.09 97.51
  L 169.81 98.46
  Q 169.66 98.95 169.83 99.44
  Q 169.93 99.70 169.87 100.00
  Q 169.73 100.60 170.09 99.98
  L 170.39 99.47
  Z"
/>
<path fill="#fdfdfd" d="
  M 225.79 131.65
  Q 220.97 123.57 213.29 118.08
  Q 212.86 117.77 213.29 117.45
  C 218.32 113.69 221.89 111.73 225.42 105.16
  Q 225.74 104.55 226.09 105.15
  Q 228.19 108.71 230.99 111.66
  C 233.26 114.05 236.40 115.64 239.26 117.52
  A 0.43 0.43 0.0 0 1 239.27 118.24
  Q 231.39 123.76 225.94 131.66
  A 0.09 0.09 0.0 0 1 225.79 131.65
  Z"
/>
<path fill="#fdfdfd" d="
  M 425.56 164.63
  C 418.43 151.96 409.59 139.13 399.39 128.54
  A 1.08 1.07 -45.6 0 1 399.38 127.06
  L 402.75 123.49
  Q 403.45 122.76 404.21 123.42
  C 406.02 125.01 407.32 127.26 408.69 128.78
  Q 417.45 138.46 421.70 145.05
  Q 434.33 164.61 440.49 180.26
  Q 445.93 194.11 446.83 198.50
  Q 448.41 206.15 450.09 213.78
  Q 459.27 255.30 449.84 296.61
  Q 449.78 296.88 449.51 296.96
  L 442.56 298.82
  A 0.14 0.13 -0.4 0 1 442.39 298.66
  C 452.74 258.33 448.57 212.61 430.17 174.79
  C 428.53 171.43 427.28 167.68 425.56 164.63
  Z"
/>
<path fill="#fdfdfd" d="
  M 73.77 160.18
  C 72.89 161.63 72.30 163.37 71.44 164.97
  Q 57.81 190.62 52.97 215.50
  Q 52.20 219.48 50.74 231.81
  C 48.91 247.32 48.69 263.48 50.84 278.25
  C 52.07 286.69 52.47 292.21 53.97 298.05
  Q 54.21 298.97 53.30 298.70
  L 47.55 297.03
  A 1.42 1.39 2.6 0 1 46.57 295.98
  Q 35.94 246.27 50.43 198.75
  C 51.86 194.03 53.01 189.37 54.49 185.49
  C 59.75 171.81 65.46 161.58 71.48 151.13
  C 76.38 142.62 81.83 135.51 88.68 127.93
  Q 91.84 124.43 93.18 123.26
  Q 93.42 123.04 93.64 123.30
  L 97.31 127.72
  Q 97.49 127.93 97.29 128.13
  C 94.97 130.46 93.12 133.29 90.95 135.70
  C 84.33 143.02 78.53 152.34 73.77 160.18
  Z"
/>
<circle fill="#fdfdfd" cx="271.41" cy="147.27" r="16.96"/>
<rect fill="#9ca0a7" x="-0.36" y="-7.79" transform="translate(134.72,137.30) rotate(39.2)" width="0.72" height="15.58" rx="0.34"/>
<path fill="#9ca0a7" d="
  M 377.68 156.72
  Q 370.65 159.98 375.18 165.02
  C 376.10 166.05 377.23 166.50 378.46 167.24
  Q 378.87 167.49 378.44 167.70
  C 374.36 169.65 366.38 171.74 363.39 167.13
  Q 358.89 160.17 363.12 153.23
  Q 363.33 152.88 362.95 153.02
  C 358.09 154.75 354.13 156.39 350.36 160.22
  C 344.47 166.18 339.93 172.18 333.48 178.48
  Q 328.91 182.94 323.45 189.31
  C 315.87 198.14 307.48 206.28 300.13 215.30
  A 1.94 1.94 0.0 0 1 298.61 216.01
  L 277.69 215.77
  C 285.80 205.50 295.05 197.06 303.39 186.89
  C 307.87 181.43 313.78 176.00 318.00 171.19
  C 322.94 165.56 327.33 160.41 333.01 154.68
  C 339.01 148.60 344.38 142.05 349.94 135.58
  Q 350.27 135.20 350.74 135.36
  L 353.71 136.34
  Q 354.44 136.58 353.96 135.97
  Q 353.25 135.06 352.00 134.49
  A 0.24 0.24 0.0 0 1 351.86 134.29
  L 351.79 133.53
  Q 351.75 133.00 352.19 133.30
  C 358.61 137.74 363.36 143.24 369.40 147.92
  Q 374.22 151.65 377.68 156.72
  Z"
/>
<ellipse fill="#fdfdfd" cx="0.00" cy="0.00" transform="translate(205.34,137.30) rotate(4.6)" rx="3.90" ry="3.62"/>
<path fill="#656877" fill-opacity="0.867" d="
  M 379.79 147.70
  Q 379.47 148.59 378.95 149.13
  Q 378.54 149.55 378.05 149.24
  L 372.10 145.56
  Q 374.00 145.46 375.57 147.38
  A 0.58 0.58 0.0 0 0 376.46 147.38
  Q 376.64 147.18 376.87 147.20
  Q 376.93 147.21 377.50 147.01
  Q 377.80 146.92 378.03 146.72
  A 0.74 0.73 -39.8 0 1 379.07 146.81
  L 379.79 147.70
  Z"
/>
<rect fill="#fdfdfd" x="-2.16" y="-2.64" transform="translate(100.07,152.84) rotate(36.8)" width="4.32" height="5.28" rx="0.62"/>
<path fill="#fdfdfd" d="
  M 115.83 152.41
  Q 114.31 161.96 110.31 171.11
  L 106.36 174.40
  Q 105.90 174.78 106.07 174.21
  Q 109.29 162.64 115.83 152.41
  Z"
/>
<path fill="#fdfdfd" d="
  M 226.25 165.39
  C 225.81 166.06 225.63 167.00 225.18 167.85
  Q 224.78 168.60 224.49 167.81
  Q 223.05 163.98 219.46 161.87
  Q 217.69 160.83 219.43 159.74
  Q 222.55 157.78 224.50 154.72
  Q 224.78 154.27 225.08 154.71
  Q 227.22 157.94 230.54 159.99
  A 0.79 0.79 0.0 0 1 230.52 161.34
  Q 227.95 162.81 226.25 165.39
  Z
  M 221.90 160.75
  A 0.46 0.46 0.0 0 0 221.96 161.42
  L 224.59 163.48
  A 0.46 0.46 0.0 0 0 225.20 163.44
  L 227.57 161.03
  A 0.46 0.46 0.0 0 0 227.57 160.39
  L 225.10 157.91
  A 0.46 0.46 0.0 0 0 224.44 157.93
  L 221.90 160.75
  Z"
/>
<path fill="#656877" fill-opacity="0.867" d="
  M 404.37 166.50
  L 402.21 162.95
  A 1.19 1.19 0.0 0 1 402.47 161.41
  L 403.71 160.38
  A 1.19 1.19 0.0 0 1 405.52 160.74
  L 407.25 164.03
  A 1.19 1.19 0.0 0 1 407.21 165.21
  L 406.39 166.52
  A 1.19 1.19 0.0 0 1 404.37 166.50
  Z"
/>
<rect fill="#fdfdfd" x="-1.97" y="-2.62" transform="translate(93.07,164.22) rotate(33.9)" width="3.94" height="5.24" rx="0.27"/>
<path fill="#68687c" fill-opacity="0.608" d="
  M 407.46 169.92
  L 406.61 168.51
  A 0.33 0.33 0.0 0 1 407.01 168.03
  Q 408.12 168.47 408.10 169.75
  A 0.35 0.34 29.9 0 1 407.46 169.92
  Z"
/>
<rect fill="#656877" fill-opacity="0.867" x="-1.66" y="-5.59" transform="translate(412.04,176.81) rotate(-29.3)" width="3.32" height="11.18" rx="1.25"/>
<path fill="#fdfdfd" d="
  M 82.64 179.04
  L 85.39 175.15
  A 0.58 0.58 0.0 0 1 86.13 174.97
  L 88.48 176.20
  A 0.58 0.58 0.0 0 1 88.71 177.00
  L 86.45 180.88
  A 0.58 0.58 0.0 0 1 85.72 181.12
  L 82.89 179.90
  A 0.58 0.58 0.0 0 1 82.64 179.04
  Z"
/>
<path fill="#fdfdfd" d="
  M 407.24 217.26
  C 425.33 206.51 408.26 182.16 392.56 194.11
  A 0.30 0.30 0.0 0 1 392.17 194.08
  L 389.31 191.16
  Q 389.09 190.94 389.33 190.74
  C 404.72 178.10 426.63 195.58 417.76 212.98
  Q 415.44 217.54 410.12 220.40
  Q 399.85 225.91 389.74 219.03
  C 385.62 216.23 384.04 212.08 383.23 207.38
  Q 383.12 206.73 383.77 206.67
  L 386.50 206.40
  Q 387.15 206.34 387.24 206.98
  C 388.43 215.29 399.68 221.75 407.24 217.26
  Z"
/>
<rect fill="#68687c" fill-opacity="0.608" x="-1.50" y="-6.41" transform="translate(420.50,193.55) rotate(-23.5)" width="3.00" height="12.82" rx="0.84"/>
<rect fill="#fdfdfd" x="-2.17" y="-2.90" transform="translate(79.44,192.81) rotate(22.9)" width="4.34" height="5.80" rx="0.55"/>
<circle fill="#68687c" fill-opacity="0.608" cx="107.21" cy="192.53" r="2.07"/>
<path fill="#fdfdfd" d="
  M 383.00 202.24
  L 385.71 195.11
  A 0.67 0.67 0.0 0 1 386.81 194.88
  L 388.81 196.95
  A 0.67 0.67 0.0 0 1 388.95 197.66
  L 386.84 202.88
  A 0.67 0.67 0.0 0 1 386.18 203.29
  L 383.58 203.15
  A 0.67 0.67 0.0 0 1 383.00 202.24
  Z"
/>
<path fill="#fdfdfd" d="
  M 337.91 208.19
  C 336.83 204.51 334.70 204.32 331.83 202.30
  A 0.64 0.63 51.8 0 1 331.96 201.19
  Q 336.46 199.42 338.67 195.13
  A 0.45 0.44 -46.1 0 1 339.45 195.11
  Q 341.77 199.20 345.86 201.52
  A 0.45 0.45 0.0 0 1 345.83 202.31
  Q 341.84 204.20 340.08 208.32
  A 1.16 1.16 0.0 0 1 337.91 208.19
  Z"
/>
<path fill="#fdfdfd" d="
  M 400.18 204.46
  L 402.38 204.59
  Q 404.14 204.69 402.58 203.87
  Q 399.33 202.16 402.08 199.76
  A 1.46 1.46 0.0 0 1 404.41 200.35
  C 405.65 203.68 401.85 206.87 399.51 208.35
  A 0.76 0.76 0.0 0 0 399.94 209.75
  C 401.68 209.70 406.32 209.07 407.05 211.55
  A 1.25 1.25 0.0 0 1 406.11 213.13
  C 403.32 213.73 397.64 214.14 395.57 211.68
  Q 393.97 209.78 395.73 207.18
  Q 395.99 206.80 395.82 206.36
  Q 395.53 205.56 395.10 204.92
  C 389.84 197.09 400.77 194.14 406.12 195.88
  A 0.73 0.72 8.6 0 1 406.62 196.55
  C 406.70 199.57 402.36 198.76 400.51 198.80
  C 397.94 198.86 396.84 201.40 398.22 203.37
  A 2.59 2.57 73.9 0 0 400.18 204.46
  Z"
/>
<path fill="#fdfdfd" d="
  M 370.96 199.06
  C 368.49 203.69 367.98 208.21 370.68 212.85
  A 0.76 0.76 0.0 0 1 370.52 213.80
  L 368.28 215.78
  Q 367.81 216.19 367.51 215.65
  C 363.97 209.16 364.12 203.32 367.58 196.94
  Q 367.81 196.51 368.23 196.76
  L 370.74 198.27
  A 0.60 0.60 0.0 0 1 370.96 199.06
  Z"
/>
<path fill="#fdfdfd" d="
  M 111.58 212.17
  L 114.01 214.73
  Q 114.73 215.48 115.41 214.71
  L 118.01 211.78
  Q 118.82 210.87 117.86 210.12
  C 116.30 208.91 112.66 206.16 114.64 203.64
  Q 117.14 200.48 120.21 197.54
  A 0.80 0.79 45.3 0 1 121.31 197.55
  L 127.50 203.53
  Q 128.01 204.02 127.51 204.54
  L 124.31 207.78
  A 0.83 0.83 0.0 0 1 123.09 207.73
  L 122.82 207.42
  A 0.84 0.82 -43.9 0 1 122.85 206.33
  L 123.70 205.40
  Q 124.18 204.88 123.79 204.28
  Q 122.84 202.83 121.53 201.80
  Q 120.68 201.12 119.91 201.90
  L 117.48 204.37
  Q 116.71 205.15 117.48 205.92
  L 121.81 210.23
  Q 122.49 210.90 121.84 211.61
  L 115.76 218.15
  Q 114.62 219.37 113.43 218.21
  L 108.52 213.47
  Q 107.51 212.49 108.46 211.45
  L 111.31 208.33
  A 0.72 0.72 0.0 0 1 112.39 208.35
  L 112.62 208.62
  Q 113.20 209.29 112.75 210.05
  Q 112.30 210.79 111.64 211.32
  A 0.59 0.58 -41.4 0 0 111.58 212.17
  Z"
/>
<rect fill="#fdfdfd" x="-2.19" y="-2.88" transform="translate(75.18,206.90) rotate(16.2)" width="4.38" height="5.76" rx="0.83"/>
<rect fill="#fdfdfd" x="-2.10" y="-2.83" transform="translate(425.13,210.06) rotate(-14.6)" width="4.20" height="5.66" rx="0.62"/>
<rect fill="#fdfdfd" x="-1.98" y="-2.84" transform="translate(71.80,221.93) rotate(10.8)" width="3.96" height="5.68" rx="0.73"/>
<path fill="#fdfdfd" d="
  M 429.16 221.54
  L 429.97 225.87
  A 0.66 0.66 0.0 0 1 429.46 226.64
  L 427.12 227.13
  A 0.66 0.66 0.0 0 1 426.34 226.65
  L 425.33 222.71
  A 0.66 0.66 0.0 0 1 425.75 221.92
  L 428.29 221.03
  A 0.66 0.66 0.0 0 1 429.16 221.54
  Z"
/>
<path fill="#fdfdfd" d="
  M 335.65 332.25
  Q 335.56 288.25 335.70 245.00
  C 335.72 237.98 331.14 233.42 324.00 233.42
  Q 246.87 233.51 169.73 233.50
  C 159.85 233.50 155.46 235.80 155.47 246.00
  Q 155.53 289.21 155.49 332.38
  Q 155.49 332.62 155.25 332.59
  L 148.74 331.90
  Q 148.48 331.88 148.48 331.62
  Q 148.46 289.02 148.49 246.33
  Q 148.49 238.46 149.80 234.82
  C 152.68 226.81 159.18 221.72 167.95 221.72
  Q 245.85 221.73 323.75 221.92
  C 334.46 221.95 342.48 230.09 342.54 240.75
  Q 342.78 286.25 342.76 331.79
  A 0.27 0.26 -1.1 0 1 342.50 332.05
  L 335.84 332.44
  Q 335.65 332.45 335.65 332.25
  Z
  M 250.48 227.38
  A 3.65 3.65 0.0 0 0 246.83 223.73
  A 3.65 3.65 0.0 0 0 243.18 227.38
  A 3.65 3.65 0.0 0 0 246.83 231.03
  A 3.65 3.65 0.0 0 0 250.48 227.38
  Z"
/>
<rect fill="#fdfdfd" x="-4.74" y="-1.91" transform="translate(128.36,226.61) rotate(42.0)" width="9.48" height="3.82" rx="1.61"/>
<ellipse fill="#fdfdfd" cx="0.00" cy="0.00" transform="translate(126.98,231.65) rotate(118.6)" rx="2.07" ry="1.59"/>
<rect fill="#fdfdfd" x="-4.79" y="-1.87" transform="translate(124.74,237.29) rotate(39.8)" width="9.58" height="3.74" rx="0.65"/>
<rect fill="#fdfdfd" x="-2.12" y="-2.78" transform="translate(70.03,237.86) rotate(7.2)" width="4.24" height="5.56" rx="0.57"/>
<rect fill="#fdfdfd" x="-2.10" y="-2.72" transform="translate(429.91,239.44) rotate(-6.0)" width="4.20" height="5.44" rx="0.50"/>
<path fill="#fdfdfd" d="
  M 100.24 275.50
  A 0.51 0.51 0.0 0 0 100.16 274.85
  Q 93.01 268.05 86.27 261.89
  C 82.91 258.83 81.98 255.20 85.41 251.91
  Q 91.33 246.22 94.08 243.46
  C 96.40 241.13 99.10 238.62 101.31 237.31
  C 103.78 235.86 107.62 238.29 106.94 241.25
  Q 106.64 242.54 104.86 244.23
  Q 99.39 249.42 93.96 254.41
  Q 91.23 256.93 94.13 259.26
  Q 99.91 263.90 105.42 268.97
  C 112.25 275.25 109.03 278.67 103.22 283.43
  C 99.99 286.08 95.84 284.30 93.63 288.59
  Q 90.82 294.05 88.61 296.84
  Q 86.88 299.02 84.03 298.20
  Q 83.59 298.07 83.67 297.61
  Q 85.03 290.70 89.15 285.17
  C 91.46 282.07 95.18 279.84 98.41 277.43
  Q 99.59 276.55 100.24 275.50
  Z"
/>
<circle fill="#fdfdfd" cx="307.77" cy="244.24" r="2.86"/>
<circle fill="#fdfdfd" cx="316.04" cy="244.21" r="2.85"/>
<ellipse fill="#fdfdfd" cx="0.00" cy="0.00" transform="translate(323.72,244.26) rotate(83.4)" rx="2.83" ry="2.52"/>
<rect fill="#fdfdfd" x="-11.80" y="-1.58" transform="translate(408.44,243.32) rotate(-0.1)" width="23.60" height="3.16" rx="1.31"/>
<path fill="#fdfdfd" d="
  M 167.63 247.99
  L 167.66 332.28
  A 0.49 0.49 0.0 0 1 167.17 332.77
  L 165.19 332.75
  A 0.49 0.49 0.0 0 1 164.70 332.26
  L 164.75 245.06
  A 0.49 0.49 0.0 0 1 165.24 244.57
  L 263.99 244.56
  A 0.49 0.49 0.0 0 1 264.48 245.03
  L 264.58 247.00
  A 0.49 0.49 0.0 0 1 264.09 247.51
  L 168.12 247.50
  A 0.49 0.49 0.0 0 0 167.63 247.99
  Z"
/>
<rect fill="#fdfdfd" x="-2.18" y="-3.03" transform="translate(68.87,253.25) rotate(1.9)" width="4.36" height="6.06" rx="0.62"/>
<rect fill="#fdfdfd" x="-2.16" y="-3.06" transform="translate(431.03,254.33) rotate(-2.0)" width="4.32" height="6.12" rx="0.56"/>
<circle fill="#fdfdfd" cx="110.49" cy="255.89" r="3.43"/>
<rect fill="#fdfdfd" x="177.35" y="254.46" width="49.68" height="2.92" rx="0.98"/>
<path fill="#fdfdfd" d="
  M 385.68 282.64
  A 0.37 0.36 -55.1 0 0 385.60 282.16
  Q 375.81 274.61 366.08 266.91
  Q 363.64 264.99 361.48 262.74
  C 358.27 259.39 362.86 254.57 366.75 257.44
  Q 370.93 260.51 372.31 261.50
  Q 380.89 267.71 389.06 274.45
  C 396.38 280.49 398.62 282.80 390.86 289.98
  C 386.96 293.59 383.06 298.31 378.53 301.87
  C 374.32 305.19 370.99 308.52 366.96 311.98
  A 2.94 2.93 52.6 0 1 362.62 311.40
  L 362.07 310.60
  Q 359.76 307.20 362.76 304.40
  Q 374.17 293.74 384.87 283.62
  Q 385.37 283.14 385.68 282.64
  Z"
/>
<rect fill="#fdfdfd" x="-12.50" y="-1.54" transform="translate(397.09,258.71) rotate(0.1)" width="25.00" height="3.08" rx="1.22"/>
<rect fill="#fdfdfd" x="-23.57" y="-1.30" transform="translate(301.93,259.19) rotate(0.1)" width="47.14" height="2.60" rx="1.05"/>
<rect fill="#fdfdfd" x="177.60" y="263.05" width="40.06" height="2.96" rx="0.72"/>
<rect fill="#fdfdfd" x="-24.92" y="-1.41" transform="translate(243.62,264.55) rotate(0.1)" width="49.84" height="2.82" rx="0.87"/>
<rect fill="#fdfdfd" x="-2.17" y="-3.19" transform="translate(69.31,269.44) rotate(-6.7)" width="4.34" height="6.38" rx="0.58"/>
<path fill="#fdfdfd" d="
  M 428.19 271.30
  L 428.70 266.69
  A 0.69 0.69 0.0 0 1 429.46 266.08
  L 432.51 266.40
  A 0.69 0.69 0.0 0 1 433.12 267.14
  L 432.73 271.84
  A 0.69 0.69 0.0 0 1 431.95 272.47
  L 428.79 272.06
  A 0.69 0.69 0.0 0 1 428.19 271.30
  Z"
/>
<rect fill="#fdfdfd" x="-40.18" y="-1.43" transform="translate(217.69,274.92) rotate(-0.1)" width="80.36" height="2.86" rx="0.88"/>
<path fill="#fdfdfd" d="
  M 363.5039 292.2418
  A 0.26 0.26 0.0 0 1 363.1362 292.2476
  L 355.3086 284.6621
  A 0.26 0.26 0.0 0 1 355.3029 284.2945
  L 362.9161 276.4382
  A 0.26 0.26 0.0 0 1 363.2838 276.4324
  L 371.1114 284.0179
  A 0.26 0.26 0.0 0 1 371.1171 284.3855
  L 363.5039 292.2418
  Z
  M 363.04 288.03
  A 0.51 0.51 0.0 0 0 363.79 287.98
  L 366.82 284.28
  A 0.51 0.51 0.0 0 0 366.78 283.58
  L 363.66 280.60
  A 0.51 0.51 0.0 0 0 362.98 280.58
  L 359.31 283.66
  A 0.51 0.51 0.0 0 0 359.28 284.41
  L 363.04 288.03
  Z"
/>
<rect fill="#fdfdfd" x="177.58" y="281.23" width="47.88" height="2.40" rx="0.57"/>
<path fill="#fdfdfd" d="
  M 431.48 282.97
  L 430.40 287.82
  A 0.63 0.63 0.0 0 1 429.59 288.29
  L 427.10 287.44
  A 0.63 0.63 0.0 0 1 426.68 286.73
  L 427.51 282.21
  A 0.63 0.63 0.0 0 1 428.24 281.70
  L 430.98 282.21
  A 0.63 0.63 0.0 0 1 431.48 282.97
  Z"
/>
<rect fill="#fdfdfd" x="-1.99" y="-3.07" transform="translate(71.26,285.98) rotate(-12.3)" width="3.98" height="6.14" rx="0.56"/>
<rect fill="#fdfdfd" x="240.95" y="288.26" width="57.98" height="2.86" rx="1.20"/>
<path fill="#fdfdfd" d="
  M 423.06 302.30
  L 425.04 296.91
  A 0.33 0.33 0.0 0 1 425.48 296.72
  L 428.34 297.94
  A 0.33 0.33 0.0 0 1 428.52 298.34
  L 427.26 302.52
  A 0.33 0.33 0.0 0 1 426.94 302.75
  L 423.37 302.74
  A 0.33 0.33 0.0 0 1 423.06 302.30
  Z"
/>
<rect fill="#fdfdfd" x="177.65" y="297.53" width="69.32" height="2.98" rx="0.96"/>
<path fill="#fdfdfd" d="
  M 72.84 302.60
  L 72.13 299.21
  A 0.35 0.35 0.0 0 1 72.34 298.82
  L 75.33 297.58
  A 0.35 0.35 0.0 0 1 75.79 297.77
  L 77.67 302.53
  A 0.35 0.35 0.0 0 1 77.33 303.01
  L 73.17 302.88
  A 0.35 0.35 0.0 0 1 72.84 302.60
  Z"
/>
<path fill="#fdfdfd" d="
  M 451.96 313.54
  Q 433.25 320.58 413.35 322.71
  Q 412.70 322.78 412.93 322.17
  L 417.19 310.89
  Q 417.40 310.36 417.96 310.25
  Q 429.76 307.84 441.52 305.39
  C 444.93 304.68 450.04 303.33 454.39 302.61
  C 459.35 301.78 463.25 300.74 467.54 299.34
  Q 468.75 298.94 468.08 300.03
  C 463.19 308.01 458.77 316.04 453.67 323.84
  C 451.23 327.58 446.81 333.21 446.53 337.68
  Q 444.56 368.73 449.35 399.30
  A 1.00 0.99 -9.2 0 1 448.52 400.44
  C 435.92 402.49 423.58 404.70 410.77 406.04
  C 399.30 407.24 387.24 408.74 376.39 409.63
  C 318.07 414.41 255.33 415.38 200.75 413.86
  Q 147.46 412.39 121.25 409.86
  Q 85.45 406.41 76.00 405.23
  Q 67.02 404.10 45.48 400.13
  Q 44.97 400.04 45.05 399.53
  Q 47.81 382.42 48.25 378.01
  Q 50.24 357.94 48.77 337.85
  Q 48.62 335.75 47.45 333.92
  Q 40.45 322.98 33.91 311.76
  C 32.19 308.83 30.32 304.09 27.80 300.28
  Q 26.66 298.56 28.63 299.18
  Q 32.53 300.40 37.74 301.57
  Q 57.94 306.08 78.16 310.50
  Q 78.66 310.61 78.82 311.09
  L 82.53 322.23
  Q 82.72 322.78 82.14 322.73
  C 69.07 321.51 54.99 318.21 42.81 313.22
  A 0.56 0.56 0.0 0 0 42.04 313.70
  Q 42.01 314.13 42.40 314.60
  C 50.28 323.96 64.13 326.84 75.75 328.93
  C 114.53 335.92 154.06 339.63 193.75 340.09
  Q 246.37 340.69 299.00 340.20
  C 337.45 339.84 375.83 336.02 413.75 329.73
  Q 427.08 327.51 439.92 323.41
  C 445.44 321.65 449.16 318.84 452.74 314.66
  Q 454.54 312.57 451.96 313.54
  Z
  M 404.25 367.68
  A 0.34 0.34 0.0 0 1 403.86 367.34
  L 403.91 344.22
  A 0.34 0.34 0.0 0 0 403.52 343.88
  L 393.86 345.41
  A 0.34 0.34 0.0 0 0 393.57 345.75
  L 393.65 395.49
  A 0.34 0.34 0.0 0 0 394.03 395.83
  L 403.60 394.58
  A 0.34 0.34 0.0 0 0 403.90 394.24
  L 403.86 377.56
  A 0.34 0.34 0.0 0 1 404.15 377.22
  L 415.98 375.28
  A 0.34 0.34 0.0 0 1 416.38 375.61
  L 416.38 392.56
  A 0.34 0.34 0.0 0 0 416.77 392.90
  L 426.32 391.58
  A 0.34 0.34 0.0 0 0 426.61 391.24
  L 426.62 341.33
  A 0.34 0.34 0.0 0 0 426.22 341.00
  L 416.60 342.62
  A 0.34 0.34 0.0 0 0 416.32 342.96
  L 416.34 365.73
  A 0.34 0.34 0.0 0 1 416.05 366.07
  L 404.25 367.68
  Z
  M 76.72 352.10
  A 1.48 1.48 0.0 0 1 77.93 351.50
  Q 82.00 351.58 86.13 352.36
  C 89.58 353.01 89.60 356.80 89.21 359.47
  A 0.63 0.62 -83.4 0 0 89.77 360.18
  L 97.56 360.95
  Q 98.46 361.04 98.44 360.14
  C 98.29 351.87 100.39 344.60 89.24 343.81
  Q 80.96 343.23 72.73 342.14
  C 69.67 341.73 66.36 343.20 66.37 346.76
  Q 66.43 364.19 66.33 381.65
  Q 66.30 386.64 66.92 388.30
  Q 68.33 392.10 72.92 392.62
  Q 82.46 393.70 92.00 394.85
  Q 95.72 395.29 97.96 391.91
  Q 98.25 391.47 98.25 390.95
  L 98.25 381.56
  Q 98.25 380.37 97.06 380.23
  L 90.54 379.47
  Q 89.41 379.34 89.33 380.47
  L 89.05 384.38
  A 1.58 1.58 0.0 0 1 87.37 385.84
  L 78.04 385.24
  A 2.07 2.07 0.0 0 1 76.10 383.17
  Q 76.14 368.54 76.16 354.12
  Q 76.16 352.87 76.72 352.10
  Z
  M 105.24 391.03
  A 6.08 6.08 0.0 0 0 110.85 397.10
  L 131.34 398.69
  A 6.08 6.08 0.0 0 0 137.89 392.65
  L 138.03 355.42
  A 6.08 6.08 0.0 0 0 132.49 349.34
  L 111.89 347.50
  A 6.08 6.08 0.0 0 0 105.27 353.55
  L 105.24 391.03
  Z
  M 375.58 380.67
  L 375.62 388.09
  A 1.08 1.07 -1.4 0 1 374.58 389.17
  L 365.45 389.45
  A 2.22 2.22 0.0 0 1 363.17 387.48
  L 362.79 384.18
  Q 362.68 383.31 361.80 383.41
  L 353.92 384.36
  Q 352.69 384.51 352.75 385.74
  C 353.13 393.65 351.62 399.12 362.23 398.46
  Q 370.99 397.90 379.75 397.34
  C 384.35 397.05 385.73 393.66 385.76 389.34
  C 385.78 385.75 386.94 374.04 383.83 371.90
  C 379.35 368.80 372.52 368.21 365.49 367.04
  C 362.39 366.53 362.83 362.37 363.07 360.11
  C 363.44 356.80 370.25 356.77 372.75 356.45
  C 375.90 356.06 376.30 359.33 375.98 361.53
  Q 375.84 362.44 376.75 362.33
  L 384.80 361.42
  Q 385.78 361.30 385.78 360.32
  C 385.79 356.13 387.10 348.25 381.09 347.46
  Q 380.23 347.35 374.66 348.01
  Q 366.64 348.96 358.62 349.85
  C 354.11 350.35 352.79 354.27 352.76 358.52
  Q 352.73 363.89 352.75 369.25
  C 352.77 372.66 355.72 374.44 358.77 375.17
  Q 365.61 376.80 372.51 378.23
  Q 373.67 378.47 375.07 379.61
  Q 375.57 380.02 375.58 380.67
  Z
  M 146.87 399.94
  Q 158.93 400.64 171.00 400.73
  C 174.40 400.76 178.11 399.27 178.20 395.74
  Q 178.48 384.53 178.32 362.67
  C 178.28 357.18 177.32 353.48 171.37 352.89
  Q 158.56 351.62 145.71 350.85
  A 0.23 0.22 1.2 0 0 145.47 351.07
  L 145.49 399.09
  Q 145.49 399.63 145.99 399.83
  Q 146.18 399.90 146.87 399.94
  Z
  M 328.74 379.23
  Q 329.31 379.80 328.52 379.94
  L 315.43 382.23
  A 0.23 0.22 13.9 0 1 315.21 381.87
  Q 320.45 375.12 323.31 367.04
  Q 323.82 365.61 324.36 367.03
  L 325.44 369.90
  Q 325.78 370.80 326.52 370.18
  L 331.90 365.65
  Q 332.73 364.96 332.33 363.95
  L 327.89 352.88
  Q 327.67 352.32 327.07 352.36
  L 314.07 353.08
  A 0.54 0.54 0.0 0 0 313.69 353.98
  L 316.23 356.85
  A 0.70 0.69 -56.1 0 1 316.36 357.56
  L 299.60 400.62
  Q 299.27 401.48 300.19 401.45
  L 312.23 401.08
  Q 312.81 401.06 313.04 400.52
  L 317.17 390.58
  Q 317.42 389.99 318.05 389.94
  L 329.20 389.05
  Q 329.71 389.01 329.92 389.47
  L 334.47 399.81
  A 0.86 0.84 76.3 0 0 335.29 400.32
  L 346.62 399.66
  A 0.45 0.45 0.0 0 0 347.01 399.04
  L 337.18 374.52
  Q 337.04 374.17 337.28 373.88
  L 337.53 373.58
  Q 338.22 372.74 337.22 373.15
  Q 332.65 375.02 328.40 377.56
  Q 327.86 377.89 328.15 378.45
  Q 328.37 378.87 328.74 379.23
  Z
  M 222.28 360.97
  Q 222.99 360.96 222.99 361.67
  Q 223.05 376.77 222.99 391.77
  C 222.97 398.03 224.61 401.55 231.27 401.67
  Q 241.52 401.86 251.72 401.66
  A 0.41 0.40 -1.4 0 0 252.12 401.25
  L 252.03 388.61
  Q 252.02 387.19 250.60 387.20
  L 245.14 387.23
  Q 244.01 387.24 243.95 388.36
  L 243.72 392.98
  A 1.18 1.18 0.0 0 1 242.53 394.10
  L 232.90 394.02
  A 2.88 2.87 -89.9 0 1 230.05 391.15
  L 229.99 363.92
  A 3.10 3.09 -0.2 0 1 233.08 360.82
  L 251.76 360.78
  Q 252.09 360.78 252.10 360.44
  L 252.21 352.97
  A 0.27 0.27 0.0 0 0 251.93 352.69
  Q 221.30 352.84 190.50 354.67
  C 185.12 354.99 184.32 358.51 184.80 363.11
  Q 184.85 363.64 185.38 363.65
  L 218.17 364.38
  A 0.56 0.56 0.0 0 0 218.74 363.83
  L 218.75 361.74
  Q 218.76 360.99 219.51 360.99
  L 222.28 360.97
  Z
  M 267.06 392.33
  A 0.33 0.33 0.0 0 1 266.73 392.00
  L 266.80 353.88
  A 0.33 0.33 0.0 0 0 266.49 353.55
  L 257.24 352.85
  A 0.33 0.33 0.0 0 0 256.88 353.18
  L 256.98 401.49
  A 0.33 0.33 0.0 0 0 257.31 401.82
  L 295.14 401.51
  A 0.33 0.33 0.0 0 0 295.46 401.19
  L 295.59 392.39
  A 0.33 0.33 0.0 0 0 295.25 392.05
  L 267.06 392.33
  Z
  M 319.44 378.85
  Q 317.01 381.08 319.84 379.40
  Q 331.22 372.68 343.43 367.60
  A 0.64 0.61 -89.5 0 0 343.78 367.24
  L 347.47 358.08
  Q 347.58 357.81 347.34 357.97
  Q 328.67 370.40 319.44 378.85
  Z
  M 217.00 382.99
  A 1.09 1.09 0.0 0 0 217.82 381.23
  L 210.57 371.78
  A 1.09 1.09 0.0 0 0 209.65 371.35
  L 185.51 372.62
  A 1.09 1.09 0.0 0 0 184.47 373.72
  L 184.60 383.19
  A 1.09 1.09 0.0 0 0 185.73 384.26
  L 217.00 382.99
  Z
  M 185.96 393.86
  A 1.71 1.71 0.0 0 0 184.61 396.63
  L 188.14 401.10
  A 1.71 1.71 0.0 0 0 189.48 401.75
  L 217.03 401.74
  A 1.71 1.71 0.0 0 0 218.74 400.03
  L 218.73 395.76
  A 1.71 1.71 0.0 0 0 217.03 394.05
  L 185.96 393.86
  Z"
/>
<ellipse fill="#fdfdfd" cx="0.00" cy="0.00" transform="translate(396.29,302.25) rotate(3.0)" rx="3.54" ry="3.40"/>
<rect fill="#fdfdfd" x="-12.10" y="-1.57" transform="translate(123.46,305.80) rotate(0.1)" width="24.20" height="3.14" rx="1.26"/>
<rect fill="#fdfdfd" x="177.54" y="308.25" width="121.56" height="2.76" rx="0.69"/>
<ellipse fill="#fdfdfd" cx="0.00" cy="0.00" transform="translate(383.13,316.62) rotate(90.2)" rx="3.65" ry="3.35"/>
<path fill="#656877" fill-opacity="0.867" d="
  M 118.19 318.05
  L 110.06 319.49
  A 0.62 0.62 0.0 0 1 109.33 318.93
  L 109.03 315.29
  A 0.62 0.62 0.0 0 1 109.59 314.62
  L 117.06 313.90
  A 0.62 0.62 0.0 0 1 117.70 314.32
  L 118.67 317.25
  A 0.62 0.62 0.0 0 1 118.19 318.05
  Z"
/>
<rect fill="#fdfdfd" x="-19.99" y="-1.37" transform="translate(197.63,320.01) rotate(-0.1)" width="39.98" height="2.74" rx="0.63"/>
<path fill="#656877" fill-opacity="0.867" d="
  M 120.07 325.51
  A 0.30 0.30 0.0 0 1 119.80 325.84
  L 119.69 325.85
  A 10.21 1.73 -5.5 0 1 109.36 325.11
  L 109.35 324.95
  A 10.21 1.73 -5.5 0 1 119.34 322.25
  L 119.45 322.24
  A 0.30 0.30 0.0 0 1 119.78 322.51
  L 120.07 325.51
  Z"
/>
<rect fill="#fdfdfd" x="283.09" y="329.36" width="41.86" height="2.92" rx="1.05"/>
<rect fill="#fdfdfd" x="-13.99" y="-1.27" transform="translate(188.04,331.48) rotate(0.1)" width="27.98" height="2.54" rx="0.86"/>
<path fill="#fdfdfd" d="
  M 128.11 360.01
  L 127.99 386.84
  A 2.76 2.76 0.0 0 1 124.98 389.58
  L 117.46 388.89
  A 2.76 2.76 0.0 0 1 114.95 386.14
  L 115.00 359.43
  A 2.76 2.76 0.0 0 1 117.97 356.69
  L 125.55 357.24
  A 2.76 2.76 0.0 0 1 128.11 360.01
  Z"
/>
<path fill="#fdfdfd" d="
  M 155.86 360.47
  A 0.59 0.59 0.0 0 1 156.44 359.88
  L 164.12 359.85
  A 4.22 4.07 89.8 0 1 168.21 364.06
  L 168.29 388.24
  A 4.22 4.07 89.8 0 1 164.24 392.47
  L 156.56 392.50
  A 0.59 0.59 0.0 0 1 155.96 391.91
  L 155.86 360.47
  Z"
/>
<path fill="#fdfdfd" d="
  M 172.38 430.79
  Q 194.31 440.12 217.60 444.06
  Q 218.09 444.14 218.14 444.63
  L 218.87 450.70
  A 0.36 0.35 1.8 0 1 218.45 451.09
  C 208.76 449.32 198.61 447.64 189.47 444.90
  Q 171.02 439.36 158.51 432.64
  C 149.15 427.61 142.61 425.09 134.46 419.24
  Q 133.99 418.90 134.57 418.96
  Q 140.27 419.50 145.91 419.50
  Q 148.36 419.50 150.38 420.50
  C 154.58 422.58 158.25 425.23 162.34 426.77
  Q 167.40 428.67 172.38 430.79
  Z"
/>
<path fill="#fdfdfd" d="
  M 361.15 419.97
  C 356.26 422.53 351.60 425.43 346.56 427.70
  C 344.27 428.73 341.98 430.28 340.01 431.24
  Q 324.69 438.75 308.48 443.97
  C 297.56 447.49 286.11 449.30 273.87 451.49
  A 0.22 0.22 0.0 0 1 273.62 451.21
  L 275.50 444.51
  Q 275.55 444.30 275.77 444.26
  Q 301.99 439.91 321.04 431.81
  C 330.71 427.70 336.80 425.86 346.09 420.16
  Q 346.45 419.94 346.88 419.92
  L 362.51 419.02
  Q 362.61 419.02 362.53 419.08
  Q 361.88 419.59 361.15 419.97
  Z"
/>
<path fill="#fdfdfd" d="
  M 263.93 454.62
  C 259.83 463.95 254.13 468.41 246.57 473.47
  A 0.72 0.72 0.0 0 1 245.78 473.49
  Q 225.99 461.51 224.27 438.17
  Q 224.17 436.73 225.39 435.96
  Q 231.10 432.35 236.91 427.98
  C 239.80 425.81 242.52 422.69 245.56 420.32
  Q 246.28 419.75 246.93 420.40
  Q 251.29 424.74 256.02 428.17
  C 258.87 430.24 262.68 433.79 266.73 435.69
  A 2.37 2.35 -75.3 0 1 268.07 438.00
  Q 267.44 446.64 263.93 454.62
  Z
  M 260.20 451.99
  C 261.62 448.19 262.26 444.17 263.07 439.94
  Q 263.15 439.52 262.81 439.25
  L 246.62 426.45
  Q 246.01 425.96 245.39 426.44
  C 239.94 430.58 235.59 435.36 229.40 438.78
  Q 228.95 439.03 228.99 439.54
  C 229.84 451.31 236.09 460.67 245.41 467.57
  A 1.20 1.19 -45.2 0 0 246.83 467.56
  C 252.04 463.67 257.87 458.27 260.20 451.99
  Z"
/>
<path fill="#fdfdfd" d="
  M 235.58 422.64
  C 230.64 427.79 226.02 430.10 220.90 435.84
  A 4.69 4.68 -61.6 0 1 216.20 437.25
  L 215.11 436.97
  A 1.78 1.78 0.0 0 1 214.31 433.99
  C 219.23 429.09 224.72 425.33 228.51 422.22
  A 1.20 1.17 24.3 0 1 229.28 421.94
  L 235.28 421.93
  Q 236.26 421.93 235.58 422.64
  Z"
/>
<path fill="#fdfdfd" d="
  M 278.82 435.66
  C 277.98 437.61 275.22 437.50 273.56 437.10
  Q 272.25 436.78 270.91 435.24
  Q 267.54 431.38 263.39 428.39
  C 260.80 426.52 259.11 424.57 257.06 422.38
  Q 256.61 421.89 257.27 421.88
  L 262.67 421.80
  Q 263.24 421.79 263.70 422.14
  L 278.26 433.45
  Q 279.40 434.33 278.82 435.66
  Z"
/>
<rect fill="#fdfdfd" x="-1.71" y="-5.45" transform="translate(246.22,433.56) rotate(-0.8)" width="3.42" height="10.90" rx="1.64"/>
<rect fill="#fdfdfd" x="-1.28" y="-2.95" transform="translate(242.83,441.28) rotate(-43.5)" width="2.56" height="5.90" rx="0.64"/>
<rect fill="#fdfdfd" x="-1.22" y="-11.48" transform="translate(243.42,447.94) rotate(43.6)" width="2.44" height="22.96" rx="0.27"/>
<rect fill="#fdfdfd" x="-2.86" y="-1.01" transform="translate(255.25,445.63) rotate(42.6)" width="5.72" height="2.02" rx="0.69"/>
<rect fill="#fdfdfd" x="-1.08" y="-2.78" transform="translate(237.53,445.84) rotate(44.6)" width="2.16" height="5.56" rx="0.79"/>
<rect fill="#fdfdfd" x="-1.28" y="-6.62" transform="translate(252.52,451.50) rotate(-43.7)" width="2.56" height="13.24" rx="0.78"/>
<ellipse fill="#fdfdfd" cx="0.00" cy="0.00" transform="translate(246.23,457.64) rotate(89.4)" rx="9.27" ry="1.90"/>
</svg>
