<svg width="60" height="61" viewBox="0 0 60 61" fill="none" xmlns="http://www.w3.org/2000/svg">
<path d="M34.1276 10.3012C33.8965 10.1091 33.6225 9.97527 33.3289 9.91116C33.0352 9.84704 32.7304 9.85448 32.4402 9.93283C32.15 10.0112 31.8829 10.1582 31.6614 10.3614C31.4399 10.5646 31.2705 10.8181 31.1675 11.1004L26.0112 25.259L20.3487 19.7723C20.1586 19.5879 19.9315 19.4458 19.6824 19.3555C19.4334 19.2652 19.168 19.2287 18.9038 19.2484C18.6396 19.2681 18.3826 19.3436 18.1497 19.4699C17.9168 19.5961 17.7133 19.7703 17.5526 19.9809C12.4761 26.6325 9.89795 33.3239 9.89795 39.8676C9.89795 45.3377 12.0709 50.5837 15.9389 54.4517C19.8068 58.3196 25.0529 60.4926 30.5229 60.4926C35.993 60.4926 41.2391 58.3196 45.107 54.4517C48.975 50.5837 51.1479 45.3377 51.1479 39.8676C51.1479 25.934 39.244 14.5551 34.1276 10.3012ZM30.5229 56.7426C26.0489 56.7376 21.7596 54.9582 18.596 51.7946C15.4324 48.631 13.6529 44.3416 13.6479 39.8676C13.6479 34.7114 15.544 29.37 19.287 23.9676L25.4675 29.9629C25.6919 30.1809 25.9674 30.3393 26.2687 30.4235C26.57 30.5078 26.8876 30.5154 27.1926 30.4455C27.4976 30.3756 27.7802 30.2305 28.0148 30.0234C28.2493 29.8163 28.4283 29.5538 28.5354 29.2598L33.755 14.9465C39.0097 19.7301 47.3979 29.0653 47.3979 39.8676C47.393 44.3416 45.6135 48.631 42.4499 51.7946C39.2863 54.9582 34.997 56.7376 30.5229 56.7426Z" fill="white"/>
</svg>
