<svg width="14" height="11" viewBox="0 0 14 11" fill="none" xmlns="http://www.w3.org/2000/svg">
<path d="M6.48809 5.66101L1.42559 10.161C1.37019 10.2101 1.30566 10.2478 1.23569 10.2719C1.16573 10.296 1.0917 10.3062 1.01782 10.3017C0.943941 10.2972 0.871669 10.2782 0.805127 10.2458C0.738585 10.2134 0.679077 10.1682 0.63 10.1128C0.580924 10.0574 0.54324 9.99292 0.519101 9.92295C0.494961 9.85299 0.484839 9.77895 0.489311 9.70507C0.493784 9.6312 0.512763 9.55892 0.545167 9.49238C0.57757 9.42584 0.622763 9.36633 0.678165 9.31726L5.27098 5.23913L0.678868 1.16101C0.623466 1.11193 0.578274 1.05242 0.54587 0.98588C0.513467 0.919338 0.494487 0.847065 0.490014 0.773188C0.485542 0.699311 0.495664 0.625277 0.519804 0.555312C0.543943 0.485347 0.581627 0.420822 0.630704 0.36542C0.67978 0.310019 0.739288 0.264826 0.80583 0.232423C0.872372 0.200019 0.944645 0.18104 1.01852 0.176567C1.0924 0.172095 1.16643 0.182217 1.2364 0.206357C1.30636 0.230496 1.37089 0.26818 1.42629 0.317256L6.48879 4.81726C6.54864 4.87004 6.59658 4.93496 6.62942 5.0077C6.66225 5.08043 6.67923 5.15933 6.67923 5.23913C6.67923 5.31894 6.66225 5.39783 6.62942 5.47057C6.59658 5.5433 6.54864 5.60822 6.48879 5.66101H6.48809ZM13.4272 9.17663H6.67723C6.52804 9.17663 6.38497 9.23589 6.27948 9.34138C6.17399 9.44687 6.11473 9.58995 6.11473 9.73913C6.11473 9.88832 6.17399 10.0314 6.27948 10.1369C6.38497 10.2424 6.52804 10.3016 6.67723 10.3016H13.4272C13.5764 10.3016 13.7195 10.2424 13.825 10.1369C13.9305 10.0314 13.9897 9.88832 13.9897 9.73913C13.9897 9.58995 13.9305 9.44687 13.825 9.34138C13.7195 9.23589 13.5764 9.17663 13.4272 9.17663Z" fill="#2CBB5D"/>
</svg>
