<svg width="20" height="16" viewBox="0 0 20 16" fill="none" xmlns="http://www.w3.org/2000/svg">
<path d="M19.6875 8.00003C19.6921 9.5563 19.1869 11.0713 18.2492 12.3133C18.098 12.507 17.8769 12.6335 17.6333 12.6658C17.3897 12.698 17.1433 12.6334 16.9469 12.4857C16.7505 12.3381 16.6199 12.1193 16.5833 11.8763C16.5466 11.6334 16.6067 11.3858 16.7508 11.1868C17.2556 10.5133 17.5932 9.72945 17.7358 8.89989C17.8783 8.07034 17.8217 7.21879 17.5706 6.41541C17.3195 5.61203 16.8811 4.87981 16.2915 4.27909C15.7019 3.67837 14.978 3.22634 14.1795 2.96025C13.3809 2.69415 12.5306 2.62161 11.6985 2.7486C10.8664 2.87559 10.0764 3.19847 9.39362 3.69065C8.7108 4.18282 8.1547 4.83019 7.77114 5.57943C7.38758 6.32867 7.18754 7.15832 7.1875 8.00003C7.1875 8.24867 7.08873 8.48713 6.91291 8.66294C6.7371 8.83876 6.49864 8.93753 6.25 8.93753C6.00136 8.93753 5.7629 8.83876 5.58709 8.66294C5.41127 8.48713 5.3125 8.24867 5.3125 8.00003C5.31205 7.4745 5.36943 6.95051 5.48359 6.43753C4.57191 6.45628 3.70502 6.83643 3.07362 7.49435C2.44223 8.15226 2.09805 9.03405 2.1168 9.94574C2.13555 10.8574 2.5157 11.7243 3.17361 12.3557C3.83153 12.9871 4.71332 13.3313 5.625 13.3125H7.5C7.74864 13.3125 7.9871 13.4113 8.16291 13.5871C8.33873 13.7629 8.4375 14.0014 8.4375 14.25C8.4375 14.4987 8.33873 14.7371 8.16291 14.9129C7.9871 15.0888 7.74864 15.1875 7.5 15.1875H5.625C4.90375 15.1884 4.18987 15.0424 3.52687 14.7585C2.86387 14.4745 2.26563 14.0585 1.76862 13.5358C1.27162 13.0131 0.886246 12.3947 0.635996 11.7183C0.385747 11.0418 0.275861 10.3215 0.313037 9.60122C0.350212 8.88092 0.533669 8.17574 0.852228 7.52865C1.17079 6.88156 1.61777 6.30611 2.16595 5.83737C2.71412 5.36864 3.35201 5.01644 4.04072 4.80223C4.72943 4.58803 5.45455 4.51631 6.17188 4.59144C6.93076 3.18233 8.13825 2.06683 9.60295 1.42173C11.0676 0.776635 12.7058 0.638856 14.2576 1.03023C15.8095 1.42161 17.1864 2.31975 18.17 3.5823C19.1536 4.84485 19.6876 6.39957 19.6875 8.00003ZM12.5383 7.33675C12.4512 7.24935 12.3477 7.18 12.2337 7.13269C12.1198 7.08537 11.9976 7.06101 11.8742 7.06101C11.7508 7.06101 11.6287 7.08537 11.5147 7.13269C11.4007 7.18 11.2973 7.24935 11.2102 7.33675L8.71016 9.83675C8.62295 9.92396 8.55378 10.0275 8.50658 10.1414C8.45938 10.2554 8.43509 10.3775 8.43509 10.5008C8.43509 10.6241 8.45938 10.7463 8.50658 10.8602C8.55378 10.9741 8.62295 11.0777 8.71016 11.1649C8.79736 11.2521 8.90089 11.3213 9.01483 11.3685C9.12877 11.4156 9.25089 11.4399 9.37422 11.4399C9.49755 11.4399 9.61967 11.4156 9.73361 11.3685C9.84755 11.3213 9.95108 11.2521 10.0383 11.1649L10.9375 10.2657V14.25C10.9375 14.4987 11.0363 14.7371 11.2121 14.9129C11.3879 15.0888 11.6264 15.1875 11.875 15.1875C12.1236 15.1875 12.3621 15.0888 12.5379 14.9129C12.7137 14.7371 12.8125 14.4987 12.8125 14.25V10.2657L13.7117 11.1657C13.8878 11.3418 14.1267 11.4407 14.3758 11.4407C14.6249 11.4407 14.8637 11.3418 15.0398 11.1657C15.216 10.9895 15.3149 10.7507 15.3149 10.5016C15.3149 10.2525 15.216 10.0137 15.0398 9.83753L12.5383 7.33675Z" fill="#2CBB5D"/>
</svg>
